Coordinates
version=1
nRows=22
nColumns=24
inDegrees=yes

Units are S.I. units (second, meters, Newtons, ...)
Angles are in degrees.

endheader
time	pelvis_tilt	pelvis_list	pelvis_rotation	pelvis_tx	pelvis_ty	pelvis_tz	hip_flexion_r	hip_adduction_r	hip_rotation_r	knee_angle_r	ankle_angle_r	subtalar_angle_r	mtp_angle_r	hip_flexion_l	hip_adduction_l	hip_rotation_l	knee_angle_l	ankle_angle_l	subtalar_angle_l	mtp_angle_l	lumbar_extension	lumbar_bending	lumbar_rotation
      0.45400000	     -5.31267186	      3.46916973	     -0.62369309	     -0.72456412	      1.00795285	      0.27246171	     22.45137193	     -2.11746340	      1.78209930	     -2.36690784	      3.52196361	     -6.34670905	      6.67686203	     -6.35148888	      8.07888869	      6.67596773	    -12.10036198	      5.01088929	    -10.96909256	      7.26054109	     -8.52750289	      3.77281564	     -7.27004223
      0.45816667	     -5.30569692	      3.43007118	     -0.60420398	     -0.71912213	      1.00742275	      0.27267222	     22.34906013	     -1.99861343	      1.96702523	     -2.36433368	      3.29909450	     -6.20454286	      6.72701294	     -6.42639164	      8.00741561	      6.49699649	    -12.62340289	      5.06376075	    -10.59726071	      7.29600078	     -8.52081612	      3.83322629	     -7.19161496
      0.46233333	     -5.33625209	      3.38405260	     -0.59310330	     -0.71367133	      1.00684566	      0.27291486	     22.30713060	     -1.86713014	      2.17315527	     -2.47212266	      3.06113139	     -6.08537285	      6.79661680	     -6.43534094	      7.92448531	      6.27414689	    -13.19344422	      5.11436965	    -10.19155126	      7.40002383	     -8.46221021	      3.89627348	     -7.15313164
      0.46650000	     -5.35247582	      3.32000297	     -0.59066816	     -0.70818569	      1.00627997	      0.27316926	     22.25647050	     -1.71516902	      2.38782256	     -2.65692228	      2.79528468	     -6.00189344	      6.88189663	     -6.44801437	      7.82021825	      6.03029844	    -13.78872795	      5.15635285	     -9.76187116	      7.56785577	     -8.41230788	      3.99049747	     -7.10548098
      0.47066667	     -5.37664743	      3.24768818	     -0.59696846	     -0.70269106	      1.00570986	      0.27345817	     22.23168322	     -1.54978183	      2.61491726	     -2.93385828	      2.50388880	     -5.96988505	      6.99083927	     -6.43526793	      7.70348098	      5.76852740	    -14.41741007	      5.18969464	     -9.32076803	      7.81939408	     -8.36378024	      4.08003953	     -7.05566632
      0.47483333	     -5.35466573	      3.15377602	     -0.61366551	     -0.69714605	      1.00521232	      0.27376641	     22.15695777	     -1.36112300	      2.84123508	     -3.26394427	      2.19207250	     -5.96323322	      7.11699731	     -6.46301154	      7.55961503	      5.47459513	    -15.05886556	      5.19332591	     -8.85325820	      8.14746134	     -8.35972981	      4.20307452	     -6.99594019
      0.47900000	     -5.37285478	      3.05942269	     -0.65121603	     -0.69158670	      1.00463585	      0.27411635	     22.13463253	     -1.16068769	      3.13578088	     -3.64902288	      1.80271474	     -6.13709268	      8.57556155	     -6.44053495	      7.41619950	      5.17959698	    -15.70552117	      5.05323432	     -8.53602380	     12.14417062	     -8.30276843	      4.33401274	     -6.95677169
      0.48316667	     -5.35680639	      2.95948366	     -0.67469730	     -0.68600235	      1.00411838	      0.27443002	     22.11528863	     -0.96783660	      3.29185248	     -4.16764731	      1.55068488	     -6.03563559	      8.60897091	     -6.42585207	      7.26135183	      4.86127036	    -16.41614760	      5.01447691	     -8.04605454	     12.23841215	     -8.28866685	      4.46503981	     -6.87579933
      0.48733333	     -5.36659495	      2.85027265	     -0.71240853	     -0.68041007	      1.00355444	      0.27479678	     22.12208463	     -0.75485682	      3.51836024	     -4.71075844	      1.24032607	     -6.13114290	      8.65437950	     -6.35724540	      7.09124115	      4.50864226	    -17.17503184	      4.95339693	     -7.54346262	     12.41795083	     -8.24163275	      4.60367976	     -6.80836808
      0.49150000	     -5.35140063	      2.72835531	     -0.76301574	     -0.67477970	      1.00303011	      0.27519470	     22.09881884	     -0.52391210	      3.77266283	     -5.27475598	      0.89811582	     -6.34955006	      9.36705150	     -6.30804958	      6.90282782	      4.13294987	    -17.93785668	      4.79230515	     -7.12481575	     15.48387038	     -8.21864204	      4.76502091	     -6.73842014
      0.49566667	     -5.34604529	      2.62284237	     -0.81393153	     -0.66915956	      1.00247307	      0.27557609	     22.13496512	     -0.31556572	      3.93871458	     -5.96473902	      0.68099385	     -6.37417575	      9.38590740	     -6.21159666	      6.72812153	      3.73700924	    -18.77383684	      4.65045090	     -6.58082198	     15.58500774	     -8.19011267	      4.89585903	     -6.66928261
      0.49983333	     -5.32590590	      2.50541444	     -0.86965450	     -0.66352499	      1.00195182	      0.27598788	     22.15101406	     -0.09107812	      4.13046259	     -6.66556114	      0.44477110	     -6.53089003	      9.41129668	     -6.10836878	      6.53396554	      3.32468714	    -19.64971936	      4.48936628	     -6.04325583	     15.77459920	     -8.18021729	      5.04393826	     -6.59814884
      0.50400000	     -5.29363801	      2.35514352	     -0.90854792	     -0.65784636	      1.00144894	      0.27639458	     22.13458948	      0.15963698	      4.30025653	     -7.34913863	      0.22328907	     -6.75216842	      9.49191391	     -5.98525007	      6.28924498	      2.87593850	    -20.58961377	      4.28996689	     -5.44983306	     16.47874993	     -8.17903272	      5.24544657	     -6.52280218
      0.50816667	     -5.31791419	      2.28884023	     -0.99042890	     -0.65224406	      1.00083484	      0.27683452	     22.27095730	      0.33973996	      4.46611052	     -8.22273715	      0.12145195	     -6.86974737	      9.52458447	     -5.78143263	      6.14514487	      2.44777711	    -21.54374792	      4.02647715	     -4.96385457	     16.78852828	     -8.11359535	      5.31434547	     -6.45745325
      0.51233333	     -5.29792171	      2.14794663	     -1.05166219	     -0.64655985	      1.00032319	      0.27728516	     22.30082015	      0.59124057	      4.64937186	     -8.99885464	     -0.03600874	     -7.20723401	      9.92514077	     -5.59956884	      5.89877287	      1.97554804	    -22.53911248	      3.62092668	     -4.50080840	     21.85814409	     -8.09242234	      5.50795670	     -6.38120405
      0.51650000	     -5.26940865	      2.06068337	     -1.11892392	     -0.64092299	      0.99978197	      0.27770469	     22.38531718	      0.77814501	      4.73369589	     -9.91443955	      0.01531393	     -7.23464524	      9.93530122	     -5.38887621	      5.70769862	      1.49990380	    -23.60513621	      3.26751489	     -3.91685056	     21.95714187	     -8.09261868	      5.61578616	     -6.33294501
      0.52066667	     -5.27008181	      1.94979165	     -1.17898505	     -0.63528654	      0.99921336	      0.27814886	     22.49041976	      0.99234759	      4.83653112	    -10.81927508	      0.07169122	     -7.39038568	      9.94106808	     -5.11221110	      5.47876750	      1.02260411	    -24.73615196	      2.88648359	     -3.33643944	     22.13781111	     -8.05926178	      5.74804771	     -6.27223597
      0.52483333	     -5.25427646	      1.84326092	     -1.23277133	     -0.62965755	      0.99867547	      0.27857886	     22.58308839	      1.19667082	      4.91635842	    -11.74418545	      0.18792693	     -7.54515030	      9.94423838	     -4.82028617	      5.24276793	      0.53964180	    -25.91487773	      2.45213334	     -2.73544037	     22.41251574	     -8.04158593	      5.88191523	     -6.21769009
      0.52900000	     -5.22775004	      1.70940760	     -1.27913776	     -0.62402124	      0.99816174	      0.27903104	     22.63882338	      1.43106893	      5.02447764	    -12.62810562	      0.32197507	     -7.82506941	      9.82870730	     -4.50933397	      4.95898152	      0.03925173	    -27.13416423	      1.87552810	     -2.21196384	     27.18490397	     -8.03099372	      6.05880395	     -6.15435391
      0.53316667	     -5.20604973	      1.62621709	     -1.33220727	     -0.61842356	      0.99763010	      0.27946126	     22.74203789	      1.60589138	      5.06877623	    -13.60197450	      0.62783526	     -7.85906922	      9.83248882	     -4.16544685	      4.72827059	     -0.43975832	    -28.39424649	      1.28928179	     -1.64505292	     27.25944655	     -8.02665523	      6.15138791	     -6.12983551
      0.53733333	     -5.18358939	      1.52336537	     -1.36318492	     -0.61284474	      0.99712012	      0.27987028	     22.83415823	      1.79287500	      5.08718606	    -14.56310592	      0.94648608	     -7.95037236	      9.82590659	     -3.78620077	      4.46299028	     -0.89226542	    -29.71362956	      0.68062233	     -1.05301384	     27.41484993	     -8.02546592	      6.28172688	     -6.09084586
      0.54150000	     -5.14900384	      1.41260779	     -1.39063199	     -0.60726851	      0.99663598	      0.28028157	     22.88723181	      1.98654502	      5.12596158	    -15.47675030	      1.32911586	     -8.05188085	      9.81519987	     -3.39218417	      4.17622390	     -1.34836199	    -31.07640866	      0.01113352	     -0.48629205	     27.59333463	     -8.03127810	      6.41952263	     -6.06545075
